<?xml version="1.0" encoding="UTF-8" standalone="no"?>
<!-- Created with Inkscape (http://www.inkscape.org/) -->

<svg
   width="84.248444mm"
   height="56.620831mm"
   viewBox="0 0 84.248444 56.620831"
   version="1.1"
   id="svg1"
   inkscape:version="1.4.4 (dcaf3e7d9e, 2026-05-05)"
   sodipodi:docname="favicon.svg"
   xmlns:inkscape="http://www.inkscape.org/namespaces/inkscape"
   xmlns:sodipodi="http://sodipodi.sourceforge.net/DTD/sodipodi-0.dtd"
   xmlns="http://www.w3.org/2000/svg"
   xmlns:svg="http://www.w3.org/2000/svg">
  <sodipodi:namedview
     id="namedview1"
     pagecolor="#ffffff"
     bordercolor="#000000"
     borderopacity="0.25"
     inkscape:showpageshadow="2"
     inkscape:pageopacity="0.0"
     inkscape:pagecheckerboard="0"
     inkscape:deskcolor="#d1d1d1"
     inkscape:document-units="mm"
     inkscape:zoom="2.0810325"
     inkscape:cx="135.99018"
     inkscape:cy="114.3663"
     inkscape:window-width="1536"
     inkscape:window-height="795"
     inkscape:window-x="0"
     inkscape:window-y="0"
     inkscape:window-maximized="1"
     inkscape:current-layer="layer1" />
  <defs
     id="defs1" />
  <g
     inkscape:label="Ebene 1"
     inkscape:groupmode="layer"
     id="layer1"
     transform="translate(-78.316667,-163.51251)">
    <path
       d="m 78.316667,191.82292 v 28.31042 h 2.778125 2.778125 v -12.8323 -12.83229 h 9.789583 9.78958 v -2.64583 -2.64583 H 93.6625 83.872917 l 1.1e-5,-10.12032 7e-6,-10.12031 14.945784,0.0406 14.945781,0.0406 1.78911,-1.43212 c 0.984,-0.78766 2.8309,-1.97239 4.1042,-2.63274 1.27331,-0.66034 2.31511,-1.25454 2.31511,-1.32045 0,-0.0659 -9.82266,-0.11984 -21.82813,-0.11984 H 78.316667 v 28.31042 M 89.28345,174.43229 c -0.07101,0.18505 -0.09704,3.07232 -0.05784,6.41615 l 0.07127,6.07969 2.711979,0.0754 2.711979,0.0754 v -3.71342 -3.71342 h 5.648362 5.64836 l 0.5032,-1.11829 c 0.27676,-0.61506 0.94031,-1.79521 1.47457,-2.62255 0.53425,-0.82735 0.90136,-1.57428 0.8158,-1.65984 -0.0856,-0.0856 -4.48524,-0.15557 -9.777067,-0.15557 -7.540451,0 -9.649423,0.0728 -9.750608,0.33645 m 0.0615,25.50054 c -0.0992,0.0992 -0.180366,4.6849 -0.180366,10.19044 v 10.01007 h 2.778124 2.778125 v -7.40834 -7.40833 h 5.953122 c 3.27422,0 5.95312,-0.0643 5.95312,-0.14283 0,-0.0786 -0.25813,-0.64411 -0.57362,-1.25677 -0.3155,-0.61267 -0.77828,-1.76879 -1.02841,-2.56915 l -0.45479,-1.45521 -7.522464,-0.0701 c -4.137361,-0.0386 -7.603638,0.011 -7.702841,0.11024"
       style="fill:#a4c2d4;fill-opacity:1;fill-rule:evenodd;stroke:none;stroke-width:3.175;stroke-dasharray:none"
       id="path1-6" />
    <path
       d="m 129.88905,163.88707 c -5.94152,1.15462 -10.50928,3.47811 -14.69011,7.47245 -2.83964,2.71297 -4.25497,4.64922 -5.96387,8.1589 -4.03471,8.2863 -3.97268,16.89769 0.18013,25.00849 3.74595,7.31615 10.30465,12.63526 18.19325,14.75472 3.46446,0.93081 10.13017,0.99761 13.26896,0.13297 4.82849,-1.3301 9.86261,-4.04384 12.89029,-6.94876 l 1.12448,-1.07888 v -3.87941 -3.87941 l -2.24465,2.40552 c -6.0576,6.49174 -13.02609,9.38556 -20.57566,8.54452 -9.6003,-1.06951 -17.53889,-8.14104 -19.8079,-17.64446 -0.75022,-3.14217 -0.61024,-8.76154 0.28868,-11.5891 1.39165,-4.37744 4.19172,-8.57622 7.44293,-11.16088 4.62359,-3.67568 8.85901,-5.16876 14.65597,-5.16656 3.84005,0.002 6.28745,0.57066 9.78959,2.27681 3.75604,1.82985 3.66336,1.61001 1.54575,3.66631 l -1.81034,1.75793 -1.08739,-0.63717 c -2.45673,-1.43953 -5.02839,-2.08577 -8.30531,-2.08708 -5.4365,-0.002 -9.00763,1.43673 -12.72231,5.1261 -2.50788,2.49079 -3.54108,4.11148 -4.64289,7.28287 -1.05353,3.03245 -1.0634,7.70432 -0.0229,10.84791 3.14938,9.51508 13.1218,14.67464 22.54748,11.6657 2.52254,-0.80527 4.12556,-1.8379 11.29436,-7.27564 2.95591,-2.24214 5.49345,-4.16663 5.63897,-4.27664 0.17448,-0.1319 0.28488,2.27502 0.32418,7.06784 0.0328,3.99733 0.12902,7.38021 0.21389,7.51752 0.28541,0.4618 4.58679,3.95435 4.87013,3.95435 0.1937,0 0.28035,-4.12923 0.28035,-13.36146 v -13.36146 h -12.58118 -12.58117 l 0.7398,0.99219 c 0.40689,0.5457 1.31479,1.73379 2.01756,2.64019 l 1.27775,1.648 5.04298,0.0718 5.04299,0.0718 -5.12885,3.87465 c -6.57316,4.96578 -8.23098,5.78264 -11.73586,5.78264 -9.02355,0 -15.29246,-9.68515 -11.35275,-17.53942 2.39276,-4.77026 6.21292,-7.1835 11.34518,-7.16691 3.49855,0.0113 5.53031,0.79808 7.98087,3.09046 l 1.69185,1.58264 4.95323,-4.84743 c 2.72427,-2.6661 5.28945,-5.16464 5.7004,-5.55233 l 0.74719,-0.70488 -1.67323,-1.63761 c -3.42375,-3.35086 -7.76939,-5.7956 -12.53044,-7.04928 -3.26445,-0.8596 -8.71452,-1.11751 -11.63237,-0.55049"
       style="fill:#add8ce;fill-opacity:1;fill-rule:evenodd;stroke:none;stroke-width:3.175;stroke-dasharray:none"
       id="path1-3" />
  </g>
</svg>
