<svg xmlns="http://www.w3.org/2000/svg" width="1010" height="214">
  <path fill-rule="evenodd" d="M551.635 41.073C545.89 45.59 549.659 55 557.212 55c4.323 0 9.208-5.132 8.352-8.775-1.505-6.41-8.867-9.134-13.93-5.152M481 79.5V117h6.5c6.668 0 7.41-.598 6.596-5.318-.078-.45 1.331.275 3.131 1.612 12.952 9.617 32.801 3.97 39.696-11.294 2.533-5.607 2.76-16.639.48-23.33-4.74-13.914-23.4-21.066-36.984-14.174-2.705 1.373-5.031 2.498-5.169 2.5S495 61.375 495 54.5V42h-14Zm275.286-33.093c-32.108 10.367-34.978 54.36-4.461 68.38 11.421 5.246 29.902 3.943 40.639-2.866l4.536-2.877V80h-14v22.102l-3.468 1.449c-4.912 2.053-16.097 1.83-21.032-.417-10.698-4.872-16.282-18.528-12.362-30.235 4.99-14.903 24.182-20.605 38.017-11.295l5.178 3.485 4.327-4.246 4.327-4.247-2.592-2.706c-5.132-5.356-13.762-8.34-24.895-8.605-6.336-.151-11.544.26-14.214 1.122M359 81.5V117h14V90h35V78h-35V57h39V46h-53zm560-25V63h-9.104l.302 5.25.302 5.25 4.165.303 4.165.304.335 16.196c.374 18.077 1.245 20.921 7.61 24.863 6.086 3.769 19.836 3.417 23.163-.592.815-.982.583-2.527-.903-5.993-1.766-4.12-2.231-4.546-3.953-3.625-1.073.574-3.53 1.044-5.46 1.044-5.822 0-6.622-2.2-6.622-18.223V74h14V63h-14V50h-14zm-491 7.613c-9.242 3.285-9.666 3.894-6.492 9.31 1.475 2.518 2.85 4.577 3.056 4.577s2.182-.942 4.39-2.093C439.374 70.476 453 73.539 453 81.313c0 2.362-.194 2.413-11.032 2.927-13.914.66-19.273 2.959-22.718 9.749-1.238 2.44-2.25 5.594-2.25 7.011s1.013 4.584 2.25 7.038c4.716 9.352 19.67 12.855 30.586 7.165 4.307-2.246 4.34-2.247 4.867-.232.457 1.749 1.343 2.029 6.414 2.029H467V98.15c0-24.613-1.537-29.163-11.4-33.756-6.652-3.097-19.314-3.226-27.6-.281m122.667-1.446c-.367.366-.667 12.741-.667 27.5V117h14V62h-6.333c-3.484 0-6.634.3-7 .667m35.62 1.195c-2.868 1.008-6.018 2.449-7 3.202s-1.93 1.454-2.107 1.556c-.514.3 3.702 8.189 4.709 8.811.504.312 3.323-.553 6.264-1.922 8.893-4.14 19.076-2.692 21.708 3.086 2.221 4.875 1.855 5.088-9.675 5.634-19.035.903-27.141 7.536-24.755 20.257 2.335 12.442 24.244 18.317 34.319 9.201l2.25-2.036v2.675c0 2.628.114 2.674 6.574 2.674h6.573l-.323-20.25c-.38-23.78-1.223-26.555-9.541-31.43-6.225-3.648-20.697-4.376-28.997-1.458M639 89.5V117h14v-16.032c0-22.092 1.855-25.972 12.787-26.755 11.188-.8 13.199 3.324 13.207 27.083L679 117.09l6.75-.295 6.75-.296-.323-19.5c-.374-22.584-1.384-26.09-9.062-31.487-3.688-2.592-5.332-3.051-11.946-3.336-6.859-.296-8.277-.022-13.419 2.591L652 67.691v-2.846c0-2.835-.023-2.845-6.5-2.845H639Zm172.709-26.876c-.39.39-.709 12.784-.709 27.543V117h13.828l.344-16.25c.457-21.585 1.963-24.49 13.328-25.712l5-.538.301-6.378.301-6.378-5.49.455c-3.694.307-6.8 1.321-9.488 3.1l-3.997 2.645-.313-2.722c-.299-2.59-.608-2.736-6.355-3.014-3.323-.161-6.36.026-6.75.416m51.718 2.25C853.15 69.737 847.99 78.29 848.01 90.429c.03 19.017 19.06 31.898 38.566 26.105 20.617-6.122 26.554-33.995 10.22-47.976-8.48-7.258-22.533-8.808-33.37-3.682m108.037-1.284c-17.315 6.148-23.033 30.392-10.52 44.607 9.91 11.259 31.666 13.1 42.327 3.583l3.676-3.281-3.933-4.462-3.933-4.462-2.29 2.145c-4.844 4.539-14.443 5.707-20.77 2.527-3.157-1.585-8.02-7.284-8.02-9.396 0-.469 9.45-.852 21-.852h21l-.01-4.75c-.019-16.254-11.211-27.351-27.404-27.171-3.9.043-8.907.724-11.128 1.512M518.64 76.124c8.704 5.282 8.569 21.76-.225 27.521-3.892 2.55-12.483 2.44-16.03-.207-4.386-3.271-6.57-6.863-7.115-11.705-1.588-14.086 11.49-22.82 23.37-15.61m366.954-.063c4.197 2.594 6.403 7.483 6.403 14.193 0 9.863-6.769 16.265-16.325 15.442-8.547-.737-13.67-6.81-13.674-16.21 0-13.197 12.476-20.297 23.596-13.425m106.005.023c2.322 2.169 5.398 6.937 5.398 8.367 0 .303-6.556.55-14.568.55h-14.567l.711-2.25c2.15-6.798 7.296-10.001 15.181-9.451 3.842.268 5.955 1.018 7.845 2.784m-538.6 21.899c-.932 5.1-2.185 6.54-7.432 8.544-3.449 1.317-5.048 1.422-8.304.546-5.06-1.363-6.488-3.06-6.085-7.234.441-4.56 3.422-5.805 13.934-5.823l8.616-.015ZM611 97.545c0 6.654-8.422 11.558-16.173 9.418-4.645-1.283-6.04-3.043-5.645-7.125.436-4.516 3.44-5.805 13.568-5.823L611 94ZM484.714 152.62c-.393.393-.714 8.29-.714 17.548V187h8.047l-.273-17.25-.274-17.25-3.036-.297c-1.67-.164-3.357.024-3.75.416M502 155.473V159h11v28h7v-27.9l5.75-.3c5.656-.295 5.75-.35 5.75-3.3v-3l-14.75-.277-14.75-.276Zm59.667-2.806c-.367.366-.667 8.241-.667 17.5V187h11.599c8.469 0 12.492-.424 14.908-1.57 5.79-2.748 6.996-9.927 2.434-14.489-1.84-1.84-1.88-2.19-.474-4.197 3.667-5.236.184-12.12-6.967-13.772-4.626-1.069-19.847-1.292-20.833-.305M604 169.5V187h27v-6l-9.75-.001-9.75-.001-.271-3.958-.271-3.958 8.27-.29 8.272-.292.313-3.25.314-3.25h-16.794v-7H630v-7h-26zm38.75-16.932c-.412.421-.75 8.34-.75 17.599V187h8v-10h3.906c3.542 0 4.241.466 7.499 5 3.296 4.588 3.926 5 7.648 5h4.057l-3.945-5.51-3.946-5.51 3.39-3.39c5.537-5.536 4.115-14.567-2.876-18.267-3.432-1.816-21.566-3.2-22.983-1.755m50.33 3.682c-1.017 2.338-4.573 10.213-7.901 17.5L679.127 187H683c3.517 0 3.987-.32 5.137-3.5l1.266-3.5 7.299-.15c4.014-.082 7.858-.195 8.541-.25s2.037 1.588 3.008 3.65c1.604 3.406 2.13 3.75 5.733 3.75h3.967l-3.373-7.25C700.819 150.177 701.89 152 698.255 152c-2.956 0-3.532.473-5.175 4.25m27.92-.777V159h11v28h8v-28h11.127l-.314-3.25-.313-3.25-14.75-.277-14.75-.276zm39.002 8.777c.002 14.839 1.199 18.067 7.998 21.565 8.237 4.238 17.353 1.715 21.264-5.886 1.451-2.82 1.718-5.563 1.5-15.429l-.264-12-3.25-.313-3.25-.314v11.929c0 14.09-1.38 17.198-7.638 17.198-7.658 0-9.362-3.395-9.362-18.65V152h-7zm44.665-11.583c-.367.366-.667 8.241-.667 17.5V187h7.933l.284-10.443.283-10.442 8.5 10.39c7.585 9.272 8.853 10.398 11.774 10.444l3.274.051-.274-17.25-.274-17.25-3.216-.31-3.217-.312-.283 11.246-.283 11.246-9.261-11.185c-8.937-10.793-12.05-13.04-14.573-10.518m52.502 1.479c-10.913 5.401-13.031 19.227-4.286 27.972 6.1 6.1 14.98 7.3 23.604 3.187L880 183.63V169h-7v5.393c0 6.05-.605 6.607-7.182 6.607-10.31 0-14.97-14.923-6.411-20.531 3.265-2.14 10.962-2.113 14.262.05 2.449 1.604 2.67 1.587 4.619-.363 5.98-5.98-11.265-10.888-21.12-6.01m-274.301 6.292c3.009 3.009.294 5.023-7.221 5.358l-6.646.295v-7.767l6.134.257c4.005.168 6.688.813 7.733 1.857m80.22.649c1.532 1.532 1.916 2.794 1.445 4.75-.933 3.873-3.237 5.163-9.223 5.163H650v-12h5.5c4.243 0 5.977.477 7.587 2.087M704 173.636c0 .2-2.505.364-5.567.364-6.282 0-6.212.277-2.208-8.777l2.034-4.598 2.87 6.324c1.58 3.477 2.871 6.487 2.871 6.687M578.047 173c4.836 0 6.07.352 6.94 1.977 1.938 3.62-1.848 6.023-9.487 6.023H569v-4.607c0-3.79.28-4.5 1.582-4 .87.334 4.229.607 7.465.607" style="fill:#2c353d;fill-opacity:1;stroke-width:12;stroke-dasharray:none"/>
  <path d="M0 107v107h21v-97h74V97H21V20.5l56.488.154 56.488.154 6.762-5.413c3.72-2.977 10.7-7.455 15.512-9.95C161.062 2.948 165 .702 165 .453S127.875 0 82.5 0H0zm41.45-65.729c-.27.7-.368 11.612-.22 24.25L41.5 88.5l10.25.285L62 89.07V61h42.696l1.902-4.227c1.046-2.325 3.554-6.785 5.573-9.912s3.407-5.95 3.084-6.273C114.93 40.265 98.303 40 78.302 40c-28.5 0-36.47.275-36.853 1.271m.233 96.38c-.375.375-.682 17.707-.682 38.515V214h21v-56h22.5c12.375 0 22.5-.243 22.5-.54s-.976-2.435-2.168-4.75-2.942-6.685-3.887-9.71l-1.719-5.5-28.431-.265c-15.637-.146-28.738.041-29.113.416" style="fill:#a4c2d4;fill-rule:evenodd;stroke:none;stroke-width:12;stroke-dasharray:none;fill-opacity:1"/>
  <path d="M194.92 1.416C172.462 5.78 155.2 14.562 139.397 29.66c-10.733 10.253-16.082 17.572-22.541 30.836-15.25 31.319-15.015 63.866.68 94.52 14.159 27.652 38.947 47.756 68.763 55.767 13.094 3.518 38.287 3.77 50.15.502 18.25-5.027 37.276-15.284 48.72-26.263l4.25-4.077V151.62l-8.484 9.092c-22.895 24.535-49.233 35.473-77.767 32.294-36.284-4.042-66.288-30.77-74.864-66.688-2.836-11.876-2.307-33.114 1.09-43.801 5.26-16.545 15.844-32.414 28.132-42.183 17.475-13.892 33.482-19.536 55.392-19.527 14.514.006 23.764 2.157 37 8.605 14.196 6.916 13.846 6.085 5.842 13.857l-6.842 6.644-4.11-2.408c-9.285-5.44-19.005-7.883-31.39-7.888-20.547-.008-34.044 5.43-48.084 19.374-9.479 9.414-13.384 15.54-17.548 27.526-3.982 11.461-4.02 29.118-.087 41 11.904 35.962 49.595 55.463 85.22 44.09 9.533-3.043 15.592-6.946 42.687-27.498l21.312-16.164c.66-.498 1.077 8.599 1.225 26.714.124 15.108.488 27.893.809 28.412 1.079 1.746 17.336 14.946 18.407 14.946.732 0 1.06-15.607 1.06-50.5v-50.5h-95.102l2.796 3.75c1.537 2.062 4.969 6.553 7.625 9.978l4.83 6.23 19.06.27 19.06.272-19.385 14.644c-24.844 18.768-31.11 21.856-44.356 21.856-34.105 0-57.798-36.606-42.908-66.291 9.043-18.03 23.482-27.15 42.88-27.087 13.222.042 20.901 3.016 30.163 11.68l6.395 5.982 18.72-18.321c10.297-10.077 19.992-19.52 21.545-20.986l2.824-2.664-6.324-6.19c-12.94-12.664-29.364-21.904-47.359-26.642-12.338-3.249-32.937-4.224-43.965-2.08" style="fill:#add8ce;fill-rule:evenodd;stroke:none;stroke-width:12;stroke-dasharray:none;fill-opacity:1"/>
  <rect width="88.463" height="3.338" x="637.363" y="209.632" rx="7.219" style="fill:#2c353d;fill-rule:evenodd;stroke-width:0"/>
</svg>
