<?xml version="1.0" encoding="UTF-8" standalone="no"?>
<svg
   viewBox="0 0 1010 214"
   version="1.1"
   width="1010"
   height="214"
   id="svg1"
   sodipodi:docname="logo.svg"
   inkscape:version="1.4.4 (dcaf3e7d9e, 2026-05-05)"
   xmlns:inkscape="http://www.inkscape.org/namespaces/inkscape"
   xmlns:sodipodi="http://sodipodi.sourceforge.net/DTD/sodipodi-0.dtd"
   xmlns="http://www.w3.org/2000/svg"
   xmlns:svg="http://www.w3.org/2000/svg">
  <defs
     id="defs1" />
  <sodipodi:namedview
     id="namedview1"
     pagecolor="#ffffff"
     bordercolor="#000000"
     borderopacity="0.25"
     inkscape:showpageshadow="2"
     inkscape:pageopacity="0.0"
     inkscape:pagecheckerboard="0"
     inkscape:deskcolor="#d1d1d1"
     inkscape:zoom="0.70710678"
     inkscape:cx="494.97475"
     inkscape:cy="280.01429"
     inkscape:window-width="1536"
     inkscape:window-height="795"
     inkscape:window-x="0"
     inkscape:window-y="0"
     inkscape:window-maximized="1"
     inkscape:current-layer="layer2" />
  <g
     inkscape:groupmode="layer"
     id="layer2"
     inkscape:label="Logo">
    <path
       d="m -5e-7,107.00069 v 107 H 10.5 21 v -48.5 -48.5 h 37 37.000001 v -10 -10 H 58 21 l 4e-5,-38.25 3e-5,-38.25 56.488001,0.15343 56.487999,0.15344 6.76197,-5.41274 c 3.71908,-2.977 10.69946,-7.4547302 15.51196,-9.9505101 4.8125,-2.49578 8.75,-4.74158985 8.75,-4.99069985 0,-0.24911 -37.125,-0.45292 -82.499999,-0.45292 H -5e-7 V 107.00069 M 41.44926,41.27233 c -0.26839,0.6994 -0.36677,11.6119 -0.21862,24.25 L 41.5,88.50069 51.75,88.78567 62,89.07066 V 75.03567 61.00069 h 21.348131 21.348119 l 1.90188,-4.2266 c 1.04603,-2.32463 3.55396,-6.78504 5.57319,-9.91201 2.01923,-3.12698 3.40673,-5.95001 3.08334,-6.2734 -0.3234,-0.3234 -16.95212,-0.58799 -36.952709,-0.58799 -28.499341,0 -36.470261,0.27505 -36.852691,1.27164 m 0.23244,96.37999 C 41.30677,138.02726 41,155.35902 41,176.16736 v 37.83333 H 51.5 62 v -28 -28 h 22.500001 c 12.375,0 22.499999,-0.24293 22.499999,-0.53984 0,-0.29691 -0.97561,-2.43441 -2.16803,-4.75 -1.19242,-2.31559 -2.94153,-6.68516 -3.88691,-9.71016 l -1.71887,-5.5 -28.431389,-0.26504 C 55.15753,137.08988 42.05664,137.27735 41.6817,137.65232"
       style="fill:#a4c2d4;fill-rule:evenodd;stroke:none;stroke-width:12;stroke-dasharray:none;fill-opacity:1"
       id="path1-6" />
    <path
       d="m 194.91926,1.4163842 c -22.45615,4.3639 -39.72014,13.1456098 -55.5217,28.2423198 -10.73248,10.25376 -16.08176,17.57186 -22.54061,30.83678 -15.24928,31.31833 -15.01485,63.865306 0.68081,94.520276 14.15791,27.65161 38.94673,47.75534 68.7619,55.76589 13.09403,3.51802 38.28727,3.77049 50.1504,0.50256 18.24939,-5.02714 37.27599,-15.28379 48.7192,-26.26302 l 4.25,-4.07767 v -14.66234 -14.66234 l -8.4837,9.09172 c -22.89488,24.53573 -49.23246,35.47302 -77.7663,32.29425 -36.28458,-4.04223 -66.28872,-30.76927 -74.8645,-66.6877 -2.83546,-11.87594 -2.30641,-33.114486 1.0911,-43.801346 5.25978,-16.54462 15.84272,-32.41403 28.13073,-42.18282 17.47501,-13.89235 33.48287,-19.53548 55.39267,-19.52716 14.51355,0.006 23.76356,2.15683 37,8.60527 14.19608,6.91596 13.84577,6.08507 5.84223,13.8569 l -6.84223,6.64415 -4.10985,-2.40819 c -9.28527,-5.44076 -19.00493,-7.88325 -31.39015,-7.88818 -20.54737,-0.008 -34.04457,5.43015 -48.08431,19.37422 -9.4786,9.41401 -13.38361,15.53945 -17.54792,27.52581 -3.98187,11.46124 -4.01916,29.118696 -0.0866,40.999996 11.90319,35.9625 49.5942,55.4632 85.21881,44.09081 9.53403,-3.04353 15.59267,-6.9464 42.68738,-27.49849 11.17194,-8.47422 20.76262,-15.74786 21.31262,-16.16365 0.65946,-0.49853 1.0767,8.59848 1.22524,26.7131 0.12388,15.108 0.48766,27.89369 0.8084,28.41266 1.07873,1.74539 17.3359,14.94557 18.40679,14.94557 0.73213,0 1.05959,-15.60652 1.05959,-50.5 V 97.015764 h -47.55089 -47.55089 l 2.7961,3.749996 c 1.53786,2.0625 4.96929,6.5529 7.62541,9.97867 l 4.8293,6.22867 19.0601,0.27133 19.06009,0.27133 -19.38461,14.64435 c -24.84346,18.76831 -31.10921,21.85565 -44.35601,21.85565 -34.10477,0 -57.79828,-36.60529 -42.90803,-66.290746 9.04351,-18.0293 23.4819,-27.15022 42.87943,-27.08751 13.22286,0.0428 20.90194,3.01635 30.16392,11.68048 l 6.39438,5.98163 18.72085,-18.32102 c 10.29647,-10.07657 19.99165,-19.51989 21.54485,-20.98516 l 2.824,-2.66414 -6.324,-6.18937 C 273.3031,17.475244 256.87861,8.2352842 238.88409,3.4969642 226.54602,0.24810421 205.94735,-0.72669579 194.91926,1.4163842"
       style="fill:#add8ce;fill-rule:evenodd;stroke:none;stroke-width:12;stroke-dasharray:none;fill-opacity:1"
       id="path1-3" />
  </g>
  <g
     inkscape:groupmode="layer"
     id="layer4"
     inkscape:label="Text"
     style="fill:#535b6e;fill-opacity:1">
    <path
       d="M 551.63486,41.07258 C 545.89091,45.59077 549.65862,55 557.21178,55 c 4.32332,0 9.20805,-5.13182 8.35266,-8.77517 -1.50508,-6.41056 -8.86778,-9.13386 -13.92958,-5.15225 M 481,79.5 V 117 h 6.5 c 6.66786,0 7.40997,-0.59839 6.59567,-5.31824 -0.0776,-0.45003 1.33157,0.27532 3.13158,1.6119 12.95201,9.61735 32.80102,3.97025 39.69607,-11.29366 2.53283,-5.60703 2.75984,-16.63875 0.48008,-23.32948 -4.74122,-13.91473 -23.4003,-21.06613 -36.98392,-14.17471 -2.70571,1.3727 -5.03198,2.4977 -5.16948,2.5 C 495.1125,66.99812 495,61.375 495,54.5 V 42 h -7 -7 V 79.5 M 756.28604,46.40713 c -32.10805,10.36691 -34.97826,54.36023 -4.46119,68.37909 11.42133,5.2467 29.90226,3.94361 40.63908,-2.86548 L 797,109.04405 V 94.52202 80 h -7 -7 v 11.05103 11.05102 l -3.46788,1.44898 c -4.91232,2.05249 -16.09707,1.8309 -21.03212,-0.41669 -10.69814,-4.8723 -16.2815,-18.52827 -12.3619,-30.23512 4.98987,-14.90345 24.18141,-20.60551 38.01648,-11.29519 l 5.17888,3.48512 4.32689,-4.24652 4.32688,-4.24652 -2.5923,-2.70578 c -5.13184,-5.35648 -13.76198,-8.33959 -24.89493,-8.6052 -6.336,-0.15117 -11.54399,0.25993 -14.21396,1.122 M 359,81.5 V 117 h 7 7 V 103.5 90 H 390.5 408 V 84 78 H 390.5 373 V 67.5 57 H 392.5 412 V 51.5 46 H 385.5 359 v 35.5 m 560,-25 V 63 h -4.5523 -4.5522 l 0.3022,5.25 0.3023,5.25 4.1649,0.30334 4.1648,0.30334 0.3352,16.19666 c 0.374,18.0769 1.2446,20.9211 7.6103,24.86284 6.0859,3.76854 19.8359,3.41724 23.1631,-0.59181 0.8151,-0.98214 0.5822,-2.52723 -0.9034,-5.99293 -1.7659,-4.11978 -2.2313,-4.54668 -3.9525,-3.62553 -1.073,0.57425 -3.53,1.04409 -5.46,1.04409 C 933.7997,106 933,103.79955 933,87.77749 V 74 h 7 7 V 68.5 63 h -7 -7 V 56.5 50 h -7 -7 v 6.5 m -491,7.6128 c -9.24183,3.28489 -9.66643,3.89388 -6.49182,9.31094 1.47502,2.51694 2.85025,4.57626 3.05605,4.57626 0.2058,0 2.18129,-0.94191 4.38997,-2.09314 C 439.37411,70.47569 453,73.53912 453,81.31293 c 0,2.36159 -0.19391,2.41303 -11.03178,2.92673 -13.9141,0.6595 -19.27341,2.95938 -22.71822,9.74927 C 418.0125,96.4281 417,99.58308 417,101 c 0,1.41692 1.0125,4.58407 2.25,7.03811 4.71588,9.35189 19.66965,12.85463 30.58608,7.16444 4.30721,-2.24513 4.33962,-2.24667 4.86663,-0.23137 0.45723,1.74841 1.3437,2.02882 6.41392,2.02882 H 467 V 98.14922 C 467,73.53667 465.46339,68.98699 455.5995,64.39403 448.94774,61.29675 436.28576,61.16773 428,64.1128 M 550.66667,62.66667 C 550.3,63.03333 550,75.40833 550,90.16667 V 117 h 7 7 V 89.5 62 h -6.33333 c -3.48334,0 -6.63334,0.3 -7,0.66667 m 35.61977,1.19506 c -2.86746,1.00809 -6.01746,2.44927 -7,3.20262 -0.98254,0.75334 -1.93033,1.45344 -2.1062,1.55578 -0.51446,0.29935 3.70136,8.18866 4.70835,8.81101 0.50444,0.31177 3.32337,-0.55331 6.26429,-1.92238 8.89294,-4.13989 19.07565,-2.69213 21.70856,3.08648 2.2209,4.87434 1.85469,5.08759 -9.67549,5.6341 -19.0347,0.9022 -27.14103,7.53563 -24.75455,20.25667 2.33421,12.44242 24.24397,18.31664 34.3186,9.20115 l 2.25,-2.03579 v 2.67432 c 0,2.62787 0.11416,2.67431 6.57371,2.67431 h 6.57371 l -0.32371,-20.25 c -0.38013,-23.77919 -1.22291,-26.55549 -9.54118,-31.43032 -6.22495,-3.64806 -20.6967,-4.37572 -28.99609,-1.45795 M 639,89.5 V 117 h 7 7 v -16.03212 c 0,-22.09165 1.8547,-25.97212 12.78747,-26.75447 11.18761,-0.80058 13.19856,3.3231 13.20695,27.08228 L 679,117.09138 685.75,116.79569 692.5,116.5 692.17686,97 c -0.37423,-22.58365 -1.38345,-26.0902 -9.06232,-31.48711 -3.68794,-2.59198 -5.33114,-3.0509 -11.94535,-3.33613 -6.85875,-0.29578 -8.27682,-0.0219 -13.41919,2.59159 L 652,67.69068 V 64.84534 C 652,62.01005 651.97704,62 645.5,62 H 639 V 89.5 M 811.709,62.62437 C 811.319,63.0143 811,75.40833 811,90.16667 V 117 h 6.914 6.9139 l 0.3442,-16.25 C 825.6293,79.16519 827.1348,76.26077 838.5,75.03796 l 5,-0.53796 0.301,-6.37806 0.3011,-6.37807 -5.4909,0.45535 c -3.6936,0.3063 -6.7989,1.321 -9.4873,3.10008 l -3.9965,2.64474 -0.3137,-2.72202 c -0.2984,-2.58963 -0.6075,-2.73624 -6.3547,-3.01431 -3.3226,-0.16076 -6.3601,0.0267 -6.75,0.41666 m 51.7177,2.2504 c -10.2759,4.86135 -15.4365,13.41496 -15.4169,25.55337 0.031,19.01696 19.0602,31.89778 38.5666,26.10501 20.6166,-6.12247 26.5533,-33.99477 10.2187,-47.9765 -8.4786,-7.25741 -22.5326,-8.80813 -33.3684,-3.68188 m 108.0361,-1.28342 c -17.3152,6.14796 -23.0327,30.39117 -10.5199,44.60647 9.9107,11.25912 31.6663,13.10075 42.3275,3.58307 l 3.6751,-3.28089 -3.9326,-4.46202 -3.9326,-4.46201 -2.2902,2.1454 c -4.8445,4.53833 -14.4427,5.70613 -20.7702,2.52708 C 972.8634,102.66256 968,96.96446 968,94.85212 968,94.38345 977.45,94 989,94 h 21 l -0.01,-4.75 c -0.019,-16.2545 -11.2111,-27.35136 -27.4041,-27.17105 -3.8997,0.0434 -8.907,0.724 -11.1275,1.5124 M 518.63914,76.12364 c 8.70338,5.28229 8.56878,21.75979 -0.22483,27.52158 -3.89229,2.55033 -12.48295,2.4394 -16.03093,-0.20701 -4.38575,-3.27129 -6.56859,-6.86271 -7.11443,-11.70539 -1.58766,-14.0857 11.48934,-22.81996 23.37019,-15.60918 M 885.593,76.06014 c 4.197,2.59389 6.4026,7.48325 6.4026,14.19308 0,9.86317 -6.7681,16.26527 -16.3245,15.44176 -8.5474,-0.73656 -13.671,-6.81068 -13.6739,-16.21061 0,-13.19653 12.4759,-20.2967 23.5958,-13.42423 m 106.0053,0.0227 c 2.3219,2.16915 5.3973,6.9369 5.3973,8.36743 0,0.30231 -6.5553,0.54966 -14.5674,0.54966 h -14.5674 l 0.7115,-2.25 c 2.1497,-6.7977 7.2954,-10.00121 15.181,-9.45102 3.842,0.26807 5.9543,1.01766 7.845,2.78393 M 452.99894,97.98165 c -0.93257,5.09984 -2.18595,6.5407 -7.43267,8.54444 -3.44904,1.3172 -5.04853,1.42225 -8.30474,0.54545 -5.06004,-1.36253 -6.48757,-3.05972 -6.08416,-7.23348 0.4407,-4.55969 3.42139,-5.8054 13.93396,-5.82339 l 8.61572,-0.0147 -0.72811,3.98172 M 611,97.54545 c 0,6.6535 -8.42205,11.55737 -16.17329,9.41715 -4.64433,-1.28236 -6.03942,-3.0431 -5.64494,-7.12447 0.43645,-4.5157 3.44115,-5.80529 13.56823,-5.82339 L 611,94 v 3.54545 M 484.71406,152.61927 C 484.32133,153.01201 484,160.90833 484,170.16667 V 187 h 4.02361 4.02362 L 491.77361,169.75 491.5,152.5 l -3.03594,-0.29739 c -1.66977,-0.16357 -3.35727,0.0239 -3.75,0.41666 M 502,155.47327 V 159 h 5.5 5.5 v 14 14 h 3.5 3.5 v -13.9501 -13.95009 l 5.75,-0.29991 c 5.65558,-0.29498 5.75,-0.34916 5.75,-3.2999 v -3 L 516.75,152.22327 502,151.94653 v 3.52674 m 59.66667,-2.8066 C 561.3,153.03333 561,160.90833 561,170.16667 V 187 h 11.59887 c 8.4689,0 12.49178,-0.42371 14.90774,-1.57016 5.79044,-2.74775 6.99673,-9.9265 2.43461,-14.48862 -1.84057,-1.84057 -1.88012,-2.19036 -0.47457,-4.19707 3.66733,-5.23585 0.18455,-12.12109 -6.96665,-13.77265 -4.62605,-1.06837 -19.84708,-1.29109 -20.83333,-0.30483 M 604,169.5 V 187 h 13.5 13.5 v -3 -3 l -9.75,-0.001 -9.75,-0.001 -0.27116,-3.95775 -0.27115,-3.95775 8.27115,-0.29079 L 627.5,172.5 l 0.31336,-3.25 0.31336,-3.25 h -8.39669 -8.3967 V 162.5 159 H 620.66667 630 v -3.5 -3.5 h -13 -13 v 17.5 m 38.75,-16.93195 c -0.4125,0.42091 -0.75,8.34028 -0.75,17.59862 V 187 h 4 4 v -5 -5 h 3.90619 c 3.54182,0 4.24128,0.46641 7.49834,5 3.29615,4.58799 3.92642,5 7.64884,5 h 4.0567 l -3.94538,-5.50966 -3.94538,-5.50965 3.39035,-3.39035 c 5.53681,-5.53681 4.1147,-14.56776 -2.87659,-18.26733 -3.43215,-1.81618 -21.56603,-3.20086 -22.98307,-1.75496 m 50.32976,3.68195 c -1.01705,2.3375 -4.57244,10.2125 -7.90087,17.5 L 679.1272,187 h 3.87167 c 3.51703,0 3.9876,-0.3206 5.13729,-3.5 l 1.26562,-3.5 7.29911,-0.15 c 4.01451,-0.0825 7.85807,-0.195 8.54124,-0.25 0.68317,-0.055 2.03671,1.5875 3.00787,3.65 1.60394,3.40637 2.12924,3.75 5.73262,3.75 h 3.96689 l -3.37278,-7.25 C 700.81904,150.17696 701.89131,152 698.25483,152 c -2.9561,0 -3.53151,0.47256 -5.17507,4.25 M 721,155.47327 V 159 h 5.5 5.5 v 14 14 h 4 4 v -14 -14 h 5.56336 5.56336 L 750.81336,155.75 750.5,152.5 735.75,152.22327 721,151.94653 v 3.52674 m 39.00155,8.77673 c 0.002,14.83868 1.19924,18.067 7.99845,21.56537 8.23691,4.23812 17.35322,1.71452 21.26438,-5.88645 1.45064,-2.81917 1.71737,-5.56282 1.5,-15.42892 l -0.26438,-12 -3.25,-0.31336 -3.25,-0.31336 v 11.9285 C 784,177.8912 782.61927,181 776.36168,181 768.70424,181 767,177.60502 767,162.35078 V 152 h -3.5 -3.5 l 0.002,12.25 m 44.6651,-11.58333 c -0.3667,0.36666 -0.6667,8.24166 -0.6667,17.5 V 187 h 3.9662 3.9661 l 0.2839,-10.44256 0.2838,-10.44257 8.5,10.39107 c 7.5843,9.27148 8.8528,10.39661 11.7737,10.44256 l 3.2736,0.0515 -0.2736,-17.25 -0.2736,-17.25 -3.2167,-0.31087 -3.2167,-0.31088 -0.2833,11.24611 -0.2833,11.24612 -9.2609,-11.18524 c -8.9361,-10.79314 -12.0502,-13.0409 -14.5725,-10.51857 m 52.5017,1.47906 c -10.9124,5.4015 -13.0308,19.22704 -4.2859,27.97192 6.101,6.10109 14.9797,7.30009 23.6038,3.18752 L 880,183.62958 V 176.31479 169 h -3.5 -3.5 v 5.39301 c 0,6.05077 -0.6046,6.60699 -7.1818,6.60699 -10.3104,0 -14.9704,-14.92284 -6.4112,-20.53103 3.2652,-2.13942 10.9617,-2.11265 14.2617,0.0496 2.4493,1.60487 2.6696,1.5876 4.6193,-0.36214 5.9805,-5.98048 -11.2651,-10.88859 -21.1197,-6.01069 m -274.30157,6.29243 c 3.00885,3.00885 0.29387,5.02316 -7.22112,5.35753 L 569,166.09138 v -3.88385 -3.88385 l 6.13368,0.25756 c 4.00563,0.16819 6.68857,0.81244 7.73305,1.85692 m 80.21993,0.6485 c 1.53243,1.53243 1.9163,2.79405 1.44527,4.75 C 663.59912,169.71009 661.29501,171 655.30887,171 H 650 v -6 -6 h 5.5 c 4.2428,0 5.97697,0.47697 7.58666,2.08666 M 704,173.63586 c 0,0.20028 -2.50532,0.36414 -5.56739,0.36414 -6.28161,0 -6.21199,0.27682 -2.20721,-8.77664 l 2.03394,-4.59807 2.87033,6.32322 C 702.70835,170.42627 704,173.43558 704,173.63586 M 578.0466,173 c 4.83684,0 6.0712,0.35159 6.94113,1.97708 C 586.92487,178.59665 583.13894,181 575.5,181 H 569 v -4.60699 c 0,-3.79013 0.28047,-4.49936 1.58179,-4 0.86998,0.33385 4.22915,0.60699 7.46481,0.60699 m 60.64725,38.63948 C 636.68144,213.6519 643.15018,214 682.55902,214 720.50656,214 726,213.81031 726,212.5 c 0,-1.31026 -5.48148,-1.5 -43.33333,-1.5 -23.83334,0 -43.6211,0.28777 -43.97282,0.63948"
       stroke="none"
       fill="#000000"
       fill-rule="evenodd"
       data-fill-layer-id="trace-color"
       id="path1"
       sodipodi:nodetypes="csscccsssssssscccccsscccccccsssscccssccccccccccccccccccccccccccccccssssssscccccccccccccssssssssssscssccscccccsccsssssssscsscsscccccssscccsssscsscccscccsscccsscssccsssccsscccsssscssccsssccsssccsscssccsssscccssscccscccccscccccccccccsscccccscssssscccccccccccccccccccccccccccscccccssscccssccscsscsssscsscccccccccccccccccccssscccssscccccscccccsscccccccsccsscccccsssssccscccsccsscccsccsscsccsscssccsssc"
       style="stroke-width:12;stroke-dasharray:none;fill:#2c353d;fill-opacity:1"
       inkscape:label="path1" />
  </g>
</svg>
